<?xml version="1.0" encoding="UTF-8"?>
<svg xmlns="http://www.w3.org/2000/svg" xmlns:xlink="http://www.w3.org/1999/xlink" width="50pt" height="50pt" viewBox="0 0 375 374.999991" version="1.2">
<defs>
<clipPath id="clip1">
  <path d="M 79.070312 87.351562 L 295.820312 87.351562 L 295.820312 287.601562 L 79.070312 287.601562 Z M 79.070312 87.351562 "/>
</clipPath>
</defs>
<g id="surface1">
<g clip-path="url(#clip1)" clip-rule="nonzero">
<path style=" stroke:none;fill-rule:evenodd;fill:rgb(47.059631%,19.219971%,9.408569%);fill-opacity:1;" d="M 123.683594 248.890625 C 127.050781 247.382812 130.648438 245.734375 134.429688 243.898438 C 134.558594 243.839844 134.648438 243.746094 134.695312 243.613281 C 134.738281 243.480469 134.730469 243.351562 134.664062 243.226562 C 131.960938 238.089844 129.949219 232.695312 128.625 227.042969 C 127.304688 221.390625 126.71875 215.664062 126.863281 209.859375 C 126.847656 204.527344 127.441406 199.261719 128.640625 194.066406 C 129.839844 188.871094 131.617188 183.878906 133.96875 179.09375 C 134.042969 178.984375 134.144531 178.945312 134.273438 178.980469 C 134.402344 179.015625 134.472656 179.101562 134.476562 179.234375 C 131.296875 200.757812 133.132812 222.050781 142.324219 239.601562 C 142.386719 239.722656 142.480469 239.800781 142.605469 239.839844 C 142.730469 239.882812 142.855469 239.871094 142.972656 239.8125 C 156.320312 233.125 171.617188 224.789062 188.328125 214.921875 C 210.089844 202.261719 231.050781 188.394531 251.210938 173.3125 C 251.304688 173.246094 251.367188 173.152344 251.394531 173.039062 C 251.421875 172.921875 251.40625 172.8125 251.347656 172.710938 C 251.046875 172.105469 250.722656 171.503906 250.398438 170.921875 C 248.539062 167.769531 246.21875 165.007812 243.433594 162.632812 C 243.308594 162.585938 243.1875 162.585938 243.0625 162.632812 C 242.929688 162.660156 242.835938 162.738281 242.785156 162.863281 C 242.109375 164.171875 241.199219 165.292969 240.054688 166.21875 C 238.914062 167.148438 237.632812 167.8125 236.214844 168.207031 C 231.570312 169.574219 225.699219 168.578125 223.285156 163.886719 C 222.5 162.34375 222.191406 160.710938 222.355469 158.988281 C 222.421875 158.53125 222.523438 158.082031 222.660156 157.640625 C 222.742188 157.425781 222.894531 157.335938 223.125 157.363281 C 223.226562 157.367188 223.3125 157.40625 223.390625 157.476562 C 223.464844 157.546875 223.507812 157.632812 223.519531 157.734375 C 223.640625 158.535156 223.882812 159.300781 224.242188 160.03125 C 224.601562 160.757812 225.066406 161.414062 225.632812 162 C 226.195312 162.582031 226.835938 163.066406 227.554688 163.449219 C 228.269531 163.835938 229.027344 164.101562 229.824219 164.25 C 230.625 164.398438 231.425781 164.417969 232.234375 164.316406 C 233.039062 164.214844 233.808594 163.992188 234.546875 163.652344 C 235.285156 163.308594 235.949219 162.863281 236.546875 162.3125 C 237.144531 161.761719 237.644531 161.132812 238.046875 160.425781 C 240.925781 155.640625 243.09375 150.546875 244.554688 145.15625 C 246.011719 139.761719 246.707031 134.273438 246.636719 128.6875 C 246.636719 123.628906 245.996094 118.652344 244.710938 113.757812 C 244.136719 111.585938 243.316406 109.515625 242.25 107.539062 C 241.183594 105.566406 239.902344 103.746094 238.402344 102.074219 C 236.902344 100.40625 235.230469 98.933594 233.378906 97.664062 C 231.53125 96.394531 229.558594 95.355469 227.464844 94.554688 C 221.027344 92.265625 214.445312 90.539062 207.714844 89.378906 C 200.988281 88.214844 194.207031 87.636719 187.378906 87.636719 C 180.546875 87.636719 173.769531 88.214844 167.039062 89.378906 C 160.308594 90.539062 153.726562 92.265625 147.289062 94.554688 C 145.195312 95.355469 143.222656 96.394531 141.375 97.664062 C 139.527344 98.933594 137.851562 100.40625 136.351562 102.074219 C 134.851562 103.746094 133.570312 105.566406 132.503906 107.539062 C 131.4375 109.515625 130.617188 111.585938 130.042969 113.757812 C 128.757812 118.652344 128.117188 123.628906 128.117188 128.6875 C 128.054688 134.273438 128.75 139.761719 130.210938 145.152344 C 131.667969 150.546875 133.835938 155.636719 136.707031 160.425781 C 137.109375 161.132812 137.609375 161.761719 138.207031 162.3125 C 138.804688 162.863281 139.472656 163.308594 140.207031 163.652344 C 140.945312 163.992188 141.714844 164.214844 142.523438 164.316406 C 143.328125 164.417969 144.128906 164.398438 144.929688 164.25 C 145.726562 164.101562 146.484375 163.835938 147.199219 163.449219 C 147.917969 163.066406 148.558594 162.582031 149.121094 162 C 149.6875 161.414062 150.152344 160.757812 150.511719 160.03125 C 150.871094 159.300781 151.113281 158.535156 151.238281 157.734375 C 151.25 157.632812 151.292969 157.546875 151.367188 157.476562 C 151.441406 157.40625 151.527344 157.367188 151.632812 157.363281 C 151.851562 157.34375 152.007812 157.4375 152.097656 157.640625 C 152.242188 158.078125 152.34375 158.527344 152.398438 158.988281 C 152.566406 160.710938 152.253906 162.34375 151.46875 163.886719 C 149.148438 168.53125 143.230469 169.574219 138.539062 168.207031 C 137.121094 167.8125 135.839844 167.148438 134.699219 166.21875 C 133.554688 165.292969 132.648438 164.171875 131.972656 162.863281 C 131.917969 162.738281 131.824219 162.660156 131.691406 162.632812 C 131.570312 162.585938 131.445312 162.585938 131.320312 162.632812 C 128.535156 165.007812 126.214844 167.769531 124.359375 170.921875 C 121.113281 176.914062 118.65625 183.210938 116.992188 189.820312 C 115.324219 196.425781 114.5 203.136719 114.515625 209.953125 C 114.417969 216.644531 115.082031 223.257812 116.511719 229.792969 C 117.9375 236.328125 120.089844 242.617188 122.964844 248.660156 C 122.988281 248.730469 123.027344 248.792969 123.078125 248.84375 C 123.132812 248.898438 123.195312 248.9375 123.265625 248.960938 C 123.335938 248.984375 123.410156 248.988281 123.484375 248.976562 C 123.558594 248.964844 123.625 248.933594 123.683594 248.890625 Z M 149.703125 150.746094 C 148.324219 148.21875 147.203125 145.582031 146.351562 142.835938 C 145.496094 140.085938 144.925781 137.28125 144.632812 134.417969 C 144.34375 131.554688 144.339844 128.691406 144.621094 125.824219 C 144.90625 122.960938 145.46875 120.152344 146.316406 117.402344 C 146.558594 116.785156 146.855469 116.195312 147.203125 115.628906 C 147.554688 115.066406 147.953125 114.539062 148.398438 114.046875 C 148.84375 113.554688 149.328125 113.109375 149.855469 112.703125 C 150.378906 112.300781 150.9375 111.945312 151.527344 111.644531 C 152.117188 111.339844 152.730469 111.09375 153.367188 110.898438 C 154 110.707031 154.648438 110.574219 155.304688 110.5 C 155.964844 110.421875 156.625 110.40625 157.289062 110.453125 C 157.949219 110.496094 158.601562 110.601562 159.246094 110.761719 C 168.511719 113.007812 177.914062 114.128906 187.445312 114.128906 C 196.980469 114.128906 206.382812 113.007812 215.648438 110.761719 C 216.292969 110.601562 216.945312 110.496094 217.605469 110.453125 C 218.269531 110.40625 218.929688 110.421875 219.585938 110.5 C 220.246094 110.574219 220.894531 110.707031 221.527344 110.898438 C 222.164062 111.09375 222.777344 111.339844 223.367188 111.644531 C 223.957031 111.945312 224.511719 112.300781 225.039062 112.703125 C 225.566406 113.109375 226.050781 113.554688 226.496094 114.046875 C 226.941406 114.539062 227.339844 115.066406 227.6875 115.632812 C 228.039062 116.195312 228.335938 116.785156 228.578125 117.402344 C 229.417969 120.15625 229.972656 122.964844 230.25 125.832031 C 230.527344 128.699219 230.515625 131.5625 230.214844 134.425781 C 229.914062 137.289062 229.335938 140.09375 228.472656 142.84375 C 227.613281 145.589844 226.484375 148.222656 225.097656 150.746094 C 219.621094 148.417969 213.964844 146.683594 208.128906 145.542969 C 201.261719 144.289062 194.335938 143.664062 187.355469 143.664062 C 180.371094 143.664062 173.449219 144.289062 166.578125 145.542969 C 160.773438 146.6875 155.148438 148.421875 149.703125 150.746094 Z M 295.289062 146.726562 C 292.085938 141.292969 274.1875 143.6875 252.53125 156.222656 C 252.441406 156.269531 252.375 156.339844 252.34375 156.4375 C 252.308594 156.535156 252.316406 156.628906 252.359375 156.722656 C 252.402344 156.816406 252.476562 156.878906 252.574219 156.914062 C 252.667969 156.949219 252.765625 156.941406 252.855469 156.898438 C 269.105469 150.210938 279.320312 147.867188 281.175781 151.023438 C 285.191406 157.828125 245.707031 188.613281 192.972656 219.796875 C 140.234375 250.980469 94.230469 270.738281 90.191406 263.914062 C 88.449219 260.941406 95.203125 252.769531 107.367188 243.015625 C 107.445312 242.957031 107.496094 242.882812 107.511719 242.785156 C 107.527344 242.6875 107.503906 242.597656 107.449219 242.515625 C 107.390625 242.4375 107.3125 242.390625 107.214844 242.375 C 107.117188 242.355469 107.027344 242.378906 106.949219 242.4375 C 87.3125 255.507812 76.542969 269 79.628906 274.222656 C 84.851562 283.09375 127.328125 267.90625 178.511719 239.71875 C 178.660156 239.644531 178.777344 239.675781 178.871094 239.816406 C 178.960938 239.957031 178.941406 240.078125 178.8125 240.183594 C 171.476562 246.488281 163.609375 252.039062 155.207031 256.832031 C 155.121094 256.902344 155.082031 256.988281 155.082031 257.097656 C 155.082031 257.207031 155.121094 257.296875 155.207031 257.367188 C 157.71875 259.777344 160.457031 261.898438 163.421875 263.726562 C 163.503906 263.757812 163.542969 263.816406 163.542969 263.902344 C 163.542969 263.988281 163.503906 264.046875 163.421875 264.074219 C 158.90625 263.53125 154.679688 262.117188 150.75 259.828125 C 150.640625 259.75 150.53125 259.75 150.425781 259.828125 C 146.082031 262.3125 139.539062 265.722656 137.679688 266.675781 C 137.585938 266.707031 137.539062 266.773438 137.539062 266.875 C 137.539062 266.972656 137.585938 267.039062 137.679688 267.070312 C 145.488281 269.363281 153.414062 271.113281 161.460938 272.316406 C 169.507812 273.519531 177.601562 274.167969 185.738281 274.257812 C 193.871094 274.347656 201.976562 273.882812 210.046875 272.855469 C 218.121094 271.832031 226.082031 270.257812 233.941406 268.140625 C 235.691406 267.648438 237.335938 266.917969 238.875 265.945312 C 240.410156 264.972656 241.777344 263.800781 242.96875 262.425781 C 254.574219 249.054688 260.425781 230.710938 260.425781 209.859375 C 260.421875 205.183594 260.027344 200.539062 259.242188 195.929688 C 259.226562 195.851562 259.199219 195.777344 259.148438 195.714844 C 259.101562 195.652344 259.042969 195.601562 258.972656 195.566406 C 258.898438 195.53125 258.824219 195.515625 258.746094 195.519531 C 258.664062 195.519531 258.589844 195.542969 258.519531 195.582031 C 251.457031 199.347656 244.136719 202.53125 236.5625 205.125 C 236.367188 205.160156 236.226562 205.09375 236.136719 204.917969 C 236.042969 204.742188 236.070312 204.585938 236.214844 204.449219 C 274.976562 177.980469 299.835938 154.4375 295.289062 146.726562 Z M 187.445312 280.980469 C 173.195312 281 159.128906 279.398438 145.25 276.171875 C 145.15625 276.15625 145.085938 276.1875 145.035156 276.265625 C 144.984375 276.34375 144.984375 276.421875 145.039062 276.496094 C 151.679688 284.71875 170.570312 287.480469 187.445312 287.480469 C 204.320312 287.480469 223.214844 284.71875 229.878906 276.496094 C 229.929688 276.421875 229.933594 276.34375 229.882812 276.265625 C 229.832031 276.1875 229.761719 276.15625 229.667969 276.171875 C 215.78125 279.398438 201.707031 281 187.445312 280.980469 Z M 187.445312 280.980469 "/>
</g>
</g>
</svg>
